<?xml version="1.0" encoding="UTF-8" standalone="no"?>
<!DOCTYPE svg PUBLIC "-//W3C//DTD SVG 1.1//EN" "http://www.w3.org/Graphics/SVG/1.1/DTD/svg11.dtd">
<?xml-stylesheet type="text/css" href="../styles/layout.css" ?>
<svg width="100%" height="100%" viewBox="0 0 12 20" version="1.1" xmlns="http://www.w3.org/2000/svg" xmlns:xlink="http://www.w3.org/1999/xlink" xml:space="preserve" style="fill-rule:evenodd;clip-rule:evenodd;stroke-linejoin:round;stroke-miterlimit:1.41421;">
    <rect id="Artboard1" x="0" y="0" width="11.572" height="19.928" style="fill:none;"/>
    <clipPath id="_clip1">
        <rect id="Artboard11" x="0" y="0" width="11.572" height="19.928"/>
    </clipPath>
    <g clip-path="url(#_clip1)">
        <g transform="matrix(0.202761,0.00308917,-0.00308917,0.202761,0.0978885,-0.11426)">
            <path d="M45.042,92.298C44.795,93.391 45.058,95.529 44.909,96.974C44.869,97.366 44.706,98.148 44.336,98.172C43.65,98.214 43.795,96.749 43.701,96.068C43.602,95.348 43.419,94.696 43.209,93.961C43.015,93.286 42.835,92.319 42.396,92.195C42.027,92.091 41.242,92.474 40.712,92.627C40.158,92.786 39.569,93.06 39.225,93.335C38.89,93.605 38.346,94.025 38.084,94.505C37.902,94.836 37.908,95.642 37.411,95.611C36.944,95.583 37.091,94.757 36.984,94.068C36.944,93.813 36.804,93.584 36.819,93.365C36.846,92.993 37.317,92.415 37.582,92.161C38.615,91.169 40.299,90.487 41.613,89.859C41.302,88.469 40.024,87.792 39.38,86.487C39.281,86.284 39.229,85.999 39.121,85.74C39.024,85.512 38.863,85.307 38.769,85.092C38.541,84.567 38.481,83.889 38.153,83.554C37.955,83.352 37.729,83.425 37.484,83.292C37.38,83.237 37.322,83.052 37.19,82.972C36.813,82.742 36.377,82.633 36.175,82.25C35.798,81.531 35.712,80.406 35.705,79.387C35.7,78.571 35.947,76.863 35.427,76.612C35.137,76.472 34.309,76.918 34.03,77.177C33.795,77.395 33.644,77.748 33.397,78.047C33.172,78.32 32.864,78.557 32.667,78.825C32.491,79.066 32.399,79.396 32.222,79.642C31.971,79.99 31.611,80.251 31.357,80.613C31.158,80.897 31.073,81.282 30.869,81.573C30.65,81.884 30.356,82.126 30.142,82.446C29.933,82.759 29.723,83.069 29.512,83.363C29.046,84.009 28.422,84.457 28.056,85.015C27.795,85.412 27.393,86.57 26.69,86.569C26.055,86.568 26.176,85.704 25.895,85.321C24.864,84.734 23.852,86.069 22.941,85.889C22.476,85.797 22.424,85.223 22.106,84.878C21.463,85.415 20.925,86.06 20.325,86.681C20.051,86.964 19.793,87.387 19.36,87.467C18.931,86.956 19.111,86.163 19.153,85.493C19.314,82.938 19.37,79.957 20.181,77.909C20.06,77.632 19.623,77.692 19.231,77.704C18.695,77.462 18.205,77.173 17.603,77.002C17.242,77.734 17.078,78.602 16.929,79.477C16.558,81.653 16.346,83.953 16.117,86.439C16.074,86.906 15.89,87.536 15.973,87.813C16.09,88.201 17.147,88.363 17.464,88.708C17.671,88.934 17.804,89.357 18.015,89.681C18.234,90.02 18.681,90.305 18.992,90.734C19.207,91.03 19.45,91.532 19.645,91.94C19.873,92.419 20.144,92.856 20.206,93.243C20.339,94.078 19.988,95.519 19.006,95.499C18.428,95.087 18.391,94.22 18.048,93.596C17.411,92.439 16.478,91.609 15.322,91.042C14.777,92.115 14.68,93.739 14.321,95.084C14.225,95.448 14.038,95.795 13.978,96.134C13.871,96.736 13.913,97.07 13.65,97.654C13.527,97.925 13.208,98.657 12.785,98.626C12.305,98.59 12.343,97.541 12.304,96.896C12.26,96.185 12.396,95.395 12.428,94.909C12.457,94.493 12.383,94.138 12.438,93.777C12.604,92.717 13.044,91.883 12.859,90.743C12.043,90.857 11.295,91.077 10.764,91.613C10.546,91.834 10.402,92.191 10.178,92.434C10.016,92.608 9.772,92.704 9.671,92.828C9.38,93.186 9.168,93.648 8.909,94.032C8.661,94.4 8.415,94.868 7.997,95.052C7.406,94.676 7.883,94.078 7.955,93.733C8.058,93.239 8.018,92.824 8.194,92.356C8.332,91.988 8.455,91.591 8.629,91.211C8.719,91.012 8.911,90.817 9.033,90.584C9.125,90.412 9.127,90.208 9.205,90.06C9.544,89.413 10.691,88.036 11.394,87.723C11.632,87.617 12.008,87.635 12.187,87.461C12.399,87.257 12.392,86.733 12.475,86.178C12.634,85.129 12.808,84.153 12.987,83.047C13.121,82.225 13.438,81.172 13.607,80.338C13.738,79.694 13.745,79.009 13.92,78.345C14.082,77.729 14.223,77.09 14.429,76.583C14.527,76.345 14.798,76.042 14.783,75.864C14.755,75.515 13.525,74.647 13.273,74.402C12.762,73.909 12.22,73.353 11.902,72.843C11.183,71.694 10.937,70.644 10.103,69.787C9.277,69.936 9.188,71.669 8.227,71.593C7.892,71.566 7.822,71.253 7.689,70.998C7.547,70.725 7.472,70.559 7.29,70.35C5.946,66.205 6.963,60.269 7.195,55.774C6.898,55.691 6.75,56.053 6.596,56.218C6.417,56.408 6.221,56.602 6.049,56.801C5.707,57.198 5.259,57.514 4.905,57.924C4.568,58.315 4.411,58.873 4.059,59.461C3.962,59.622 3.683,59.775 3.511,60.045C3.314,60.355 3.36,60.663 3.061,60.673C2.437,60.693 2.614,59.475 2.677,59.035C2.89,57.54 2.955,55.94 3.237,54.439C3.509,52.985 4.113,51.739 4.477,50.53C4.194,50.56 3.844,50.922 3.649,51.17C2.931,52.088 2.626,53.546 1.874,54.625C1.652,54.945 1.396,55.454 0.954,55.363C0.689,55.308 0.4,54.746 0.358,54.438C0.252,53.674 0.743,52.307 1.025,51.727C1.473,50.807 1.822,49.868 2.06,48.721C2.292,47.609 2.486,46.464 2.659,45.352C3.139,42.257 3.716,38.716 3.702,35.315C3.7,34.779 3.666,34.192 3.695,33.663C3.707,33.45 3.814,33.25 3.816,33.046C3.822,32.537 3.714,32.068 3.769,31.585C3.807,31.25 4.009,30.924 4.067,30.585C4.207,29.769 4.293,29.122 4.564,28.444C5.029,27.28 5.663,25.766 6.377,24.706C6.63,24.498 6.903,24.329 7.111,24.069C7.28,23.858 7.345,23.561 7.512,23.347C7.974,22.762 8.76,22.429 9.063,21.692C10.957,20.148 12.875,18.297 14.455,16.28C15.229,15.291 15.832,14.512 16.485,13.43C16.897,12.749 17.531,11.92 17.825,11.075C18.063,10.388 18.168,9.723 18.375,9.122C18.647,8.329 19.031,7.483 19.48,6.822C20.09,5.922 20.937,5.237 21.762,4.435C22.763,3.463 23.718,3.01 25.141,2.439C25.343,2.357 25.501,2.18 25.696,2.09C25.953,1.972 26.343,1.928 26.677,1.823C27.318,1.621 27.929,1.452 28.689,1.285C28.955,1.228 29.254,1.271 29.536,1.211C30.302,1.047 31.228,0.682 32.203,0.511C32.717,0.421 33.26,0.395 33.8,0.318C34.873,0.164 36.157,-0.045 37.518,0.008C37.944,0.026 38.552,0.031 39.124,0.051C40.496,0.099 41.397,0.637 42.37,1.22C43.241,2.185 44.365,3.159 44.838,4.585C45.011,5.105 45.08,5.732 45.225,6.318C45.357,6.853 45.661,7.341 45.746,7.859C45.788,8.115 45.744,8.386 45.772,8.66C45.822,9.158 46.001,9.662 46.057,10.161C46.195,11.387 46.231,12.587 46.274,13.928C46.302,14.787 46.084,15.802 46.213,16.431C46.308,16.886 47.206,17.634 47.728,18.033C48.116,18.331 48.59,18.472 48.932,18.796C49.615,19.439 50.039,20.644 50.623,21.478C52.152,23.655 53.485,26.381 54.323,29.332C54.43,29.711 54.457,30.17 54.598,30.55C54.685,30.782 54.938,30.895 55.04,31.102C55.107,31.233 55.091,31.45 55.152,31.617C55.274,31.947 55.295,32.177 55.374,32.649C55.436,33.025 55.523,33.223 55.549,33.682C55.602,34.643 56.029,35.611 56.163,36.587C56.277,37.422 56.332,38.265 56.572,39.027C56.849,39.906 57.213,40.511 57.224,41.696C57.228,42.068 57.075,42.437 57.026,42.835C56.764,44.937 56.127,46.857 55.373,48.598C55.089,49.253 54.916,49.712 54.385,50.14C53.854,50.39 53.287,50.544 52.802,50.805C52.623,50.901 52.497,51.122 52.297,51.246C52.146,51.339 51.953,51.362 51.831,51.449C51.446,51.724 51.163,52.183 50.78,52.475C50.363,52.794 49.979,53.052 49.631,53.409C49.564,53.666 49.431,53.863 49.273,54.034C48.904,55.233 48.427,56.439 47.978,57.757C47.568,58.958 46.817,60.072 46.584,61.341C46.538,61.588 46.57,61.846 46.514,62.098C46.472,62.287 46.329,62.472 46.297,62.671C46.237,63.04 46.29,63.437 46.192,63.807C46.104,64.135 45.931,64.435 45.846,64.761C45.618,65.629 45.395,66.468 45.22,67.329C44.952,68.662 44.522,69.66 44.157,70.902C43.872,71.874 43.57,72.688 43.202,73.482C42.95,74.023 42.751,74.51 42.352,74.924C42.067,75.221 41.48,75.424 41.248,75.809C41.035,76.165 41.124,76.736 41.058,77.231C40.984,77.798 40.731,78.23 40.727,78.658C40.296,79.208 40.028,80.279 39.966,81.372C39.945,81.735 39.855,82.147 39.906,82.459C40.012,83.113 40.621,83.68 41.046,84.167C42,85.262 42.678,86.018 43.647,87.245C43.944,87.621 44.413,88.575 44.832,88.858C45.362,89.215 46.015,89.149 46.551,89.463C46.851,89.64 47.165,89.998 47.519,90.234C47.845,90.451 48.272,90.661 48.486,90.957C48.709,91.265 48.739,91.71 48.904,92.217C49.138,92.933 49.522,93.802 49.637,94.458C49.735,95.01 49.686,95.998 49.405,96.07C48.89,96.203 48.895,95.386 48.665,95.056C48.423,94.708 47.746,94.466 47.403,93.964C47.13,93.566 47.033,93.023 46.8,92.851C46.388,92.547 45.639,92.4 45.042,92.298ZM36.803,13.523C36.533,13.168 35.93,12.959 35.483,12.721C34.984,12.456 34.602,12.103 34.162,11.92C34.159,11.891 34.155,11.864 34.115,11.873C33.083,13.608 30.529,13.819 29.588,15.646C30.522,15.553 31.41,14.902 32.559,14.844C32.944,14.825 33.313,14.968 33.691,14.986C34.225,15.01 34.779,14.907 35.295,14.986C35.952,15.087 36.481,15.374 37.087,15.458C37.031,14.771 37.134,13.957 36.803,13.523ZM25.155,13.334C25.252,13.29 25.666,12.812 25.816,12.485C25.879,12.348 25.857,12.148 25.91,12.014C25.974,11.855 26.12,11.757 26.146,11.637C26.455,10.201 25.094,10.014 24.118,10.128C23.611,11.144 23.764,12.783 24.543,13.382C24.684,13.364 24.962,13.422 25.155,13.334ZM40.67,10.363C40.638,10.604 40.772,11.138 40.859,11.354C41.029,11.773 41.479,12.367 41.849,12.391C42.245,12.417 42.426,12.075 42.792,11.967C43.022,11.247 43.591,10.209 43.169,9.421C42.343,9.156 40.768,9.643 40.67,10.363Z"/>
        </g>
    </g>
</svg>
